# xmcd
#
# Track frame offsets: 
#        150
#        3051
#        37406
#        65894
#        116725
#        151510
#        182027
#        206373
#        225715
#        243084
#
# Disc length: 3471 seconds
#
# Revision: 0
# Processed by: cddbd v1.5.2PL0 Copyright (c) Steve Scherf et al.
# Submitted via: ExactAudioCopy v1.0b3
#
DISCID=7b0d8d0a
DTITLE=Caroline Myss - the language of archetypes (Discover the Forces
DTITLE=That Shape Your Destiny)  V07 57-51
DYEAR=2006
DGENRE=Folk
TTITLE0=the healer family – Introduction
TTITLE1=What is healing from a cosmic perspective?
TTITLE2=The Healer
TTITLE3=The Wounded Healer
TTITLE4=The Rescuer
TTITLE5=The Servant
TTITLE6=The Caretaker
TTITLE7=The Companion
TTITLE8=The dark side of the Healer–The Charlatan and the Fraud
TTITLE9=Channeling grace
EXTD=
EXTT0=
EXTT1=
EXTT2=
EXTT3=
EXTT4=
EXTT5=
EXTT6=
EXTT7=
EXTT8=
EXTT9=
PLAYORDER=
